<svg width="41" height="40" viewBox="0 0 41 40" fill="none" xmlns="http://www.w3.org/2000/svg">
<path d="M11.3333 0.75H27.3333C27.4545 0.75 27.5708 0.798089 27.6566 0.883789L38.4495 11.6768C38.5352 11.7625 38.5833 11.8788 38.5833 12V36C38.5833 37.7949 37.1282 39.25 35.3333 39.25H11.3333C9.53839 39.25 8.08331 37.7949 8.08331 36V4C8.08331 2.20507 9.53839 0.75 11.3333 0.75Z" stroke="#D0D5DD" stroke-width="1.5"/>
<path d="M27.3333 0.5V8C27.3333 10.2091 29.1242 12 31.3333 12H38.8333" stroke="#D0D5DD" stroke-width="1.5"/>
<rect x="1.33331" y="18" width="26" height="16" rx="2" fill="black"/>
<path d="M7.98477 22.7273H9.50466V27.7983C9.50466 28.267 9.39931 28.6742 9.1886 29.0199C8.98027 29.3655 8.69026 29.6319 8.31858 29.8189C7.94689 30.0059 7.51484 30.0994 7.02241 30.0994C6.58444 30.0994 6.18671 30.0225 5.82923 29.8686C5.47412 29.7124 5.19239 29.4756 4.98406 29.1584C4.77573 28.8388 4.67274 28.4375 4.67511 27.9545H6.20565C6.21038 28.1463 6.24945 28.3108 6.32284 28.4482C6.39859 28.5831 6.50158 28.6873 6.63179 28.7607C6.76436 28.8317 6.92061 28.8672 7.10054 28.8672C7.28993 28.8672 7.44973 28.8269 7.57994 28.7464C7.71252 28.6636 7.81313 28.5429 7.88179 28.3842C7.95044 28.2256 7.98477 28.0303 7.98477 27.7983V22.7273ZM10.776 30V22.7273H13.6453C14.1969 22.7273 14.6668 22.8326 15.0551 23.0433C15.4433 23.2517 15.7393 23.5417 15.9429 23.9134C16.1488 24.2827 16.2518 24.7088 16.2518 25.1918C16.2518 25.6747 16.1476 26.1009 15.9393 26.4702C15.731 26.8395 15.4291 27.1271 15.0338 27.3331C14.6408 27.5391 14.1649 27.642 13.6062 27.642H11.7774V26.4098H13.3576C13.6536 26.4098 13.8974 26.3589 14.0892 26.2571C14.2833 26.1529 14.4277 26.0097 14.5224 25.8274C14.6195 25.6428 14.668 25.4309 14.668 25.1918C14.668 24.9503 14.6195 24.7396 14.5224 24.5597C14.4277 24.3774 14.2833 24.2365 14.0892 24.1371C13.895 24.0353 13.6488 23.9844 13.3505 23.9844H12.3136V30H10.776ZM22.073 25.0781C22.0233 24.9053 21.9535 24.7526 21.8635 24.62C21.7735 24.4851 21.6635 24.3714 21.5332 24.2791C21.4054 24.1844 21.2586 24.1122 21.0929 24.0625C20.9295 24.0128 20.7484 23.9879 20.5496 23.9879C20.1779 23.9879 19.8512 24.0803 19.5695 24.2649C19.2901 24.4496 19.0723 24.7183 18.9161 25.071C18.7598 25.4214 18.6817 25.8499 18.6817 26.3565C18.6817 26.8632 18.7586 27.294 18.9125 27.6491C19.0664 28.0043 19.2842 28.2753 19.5659 28.4624C19.8476 28.647 20.1803 28.7393 20.5638 28.7393C20.9118 28.7393 21.2089 28.6778 21.4551 28.5547C21.7037 28.4292 21.8931 28.2528 22.0233 28.0256C22.1559 27.7983 22.2222 27.5296 22.2222 27.2195L22.5347 27.2656H20.6597V26.108H23.703V27.0241C23.703 27.6634 23.568 28.2126 23.2982 28.6719C23.0283 29.1288 22.6566 29.4815 22.1831 29.7301C21.7096 29.9763 21.1675 30.0994 20.5567 30.0994C19.8749 30.0994 19.2759 29.9491 18.7598 29.6484C18.2437 29.3454 17.8412 28.9157 17.5524 28.3594C17.266 27.8007 17.1227 27.1378 17.1227 26.3707C17.1227 25.7812 17.208 25.2557 17.3784 24.794C17.5512 24.33 17.7927 23.937 18.1028 23.6151C18.413 23.2931 18.774 23.0481 19.1859 22.88C19.5979 22.7119 20.0441 22.6278 20.5247 22.6278C20.9367 22.6278 21.3202 22.6882 21.6753 22.8089C22.0304 22.9273 22.3453 23.0954 22.6199 23.3132C22.8969 23.531 23.123 23.7902 23.2982 24.0909C23.4733 24.3892 23.5858 24.7183 23.6355 25.0781H22.073Z" fill="white"/>
</svg>
