<svg width="41" height="40" viewBox="0 0 41 40" fill="none" xmlns="http://www.w3.org/2000/svg">
<path d="M11.6667 0.75H27.6667C27.7879 0.75 27.9042 0.798089 27.9899 0.883789L38.7829 11.6768C38.8686 11.7625 38.9167 11.8788 38.9167 12V36C38.9167 37.7949 37.4616 39.25 35.6667 39.25H11.6667C9.87176 39.25 8.41669 37.7949 8.41669 36V4C8.41669 2.20507 9.87176 0.75 11.6667 0.75Z" stroke="#D0D5DD" stroke-width="1.5"/>
<path d="M27.6667 0.5V8C27.6667 10.2091 29.4575 12 31.6667 12H39.1667" stroke="#D0D5DD" stroke-width="1.5"/>
<rect x="1.66669" y="18" width="28" height="16" rx="2" fill="black"/>
<path d="M9.62887 24.8189C9.60046 24.5324 9.47854 24.3099 9.2631 24.1513C9.04766 23.9927 8.75529 23.9134 8.38597 23.9134C8.13502 23.9134 7.92314 23.9489 7.75032 24.0199C7.57749 24.0885 7.44492 24.1844 7.35259 24.3075C7.26263 24.4306 7.21765 24.5703 7.21765 24.7266C7.21291 24.8568 7.24014 24.9704 7.29932 25.0675C7.36088 25.1645 7.44492 25.2486 7.55145 25.3196C7.65799 25.3883 7.78109 25.4486 7.92077 25.5007C8.06045 25.5504 8.2096 25.593 8.36821 25.6286L9.02162 25.7848C9.33886 25.8558 9.63005 25.9505 9.8952 26.0689C10.1604 26.1873 10.39 26.3329 10.5841 26.5057C10.7783 26.6785 10.9286 26.8821 11.0351 27.1165C11.144 27.3509 11.1997 27.6196 11.202 27.9226C11.1997 28.3677 11.086 28.7536 10.8611 29.0803C10.6386 29.4046 10.3166 29.6567 9.8952 29.8366C9.47617 30.0142 8.97072 30.103 8.37887 30.103C7.79175 30.103 7.28038 30.013 6.84478 29.8331C6.41154 29.6532 6.073 29.3868 5.82915 29.0341C5.58767 28.679 5.46102 28.2398 5.44918 27.7166H6.93711C6.95368 27.9605 7.02352 28.1641 7.14662 28.3274C7.2721 28.4884 7.439 28.6103 7.64733 28.6932C7.85803 28.7737 8.09596 28.8139 8.36111 28.8139C8.62153 28.8139 8.84762 28.776 9.03938 28.7003C9.23351 28.6245 9.38384 28.5192 9.49037 28.3842C9.59691 28.2493 9.65017 28.0942 9.65017 27.919C9.65017 27.7557 9.60164 27.6184 9.50458 27.5071C9.40988 27.3958 9.2702 27.3011 9.08554 27.223C8.90325 27.1449 8.67953 27.0739 8.41438 27.0099L7.62248 26.8111C7.00931 26.6619 6.52517 26.4287 6.17006 26.1115C5.81495 25.7943 5.63857 25.367 5.64094 24.8295C5.63857 24.3892 5.75576 24.0045 5.9925 23.6754C6.23161 23.3464 6.5595 23.0895 6.97617 22.9048C7.39284 22.7202 7.86632 22.6278 8.39662 22.6278C8.9364 22.6278 9.40751 22.7202 9.80998 22.9048C10.2148 23.0895 10.5297 23.3464 10.7546 23.6754C10.9795 24.0045 11.0955 24.3857 11.1026 24.8189H9.62887ZM13.5502 22.7273L15.308 28.2528H15.3755L17.1369 22.7273H18.8414L16.3343 30H14.3528L11.8421 22.7273H13.5502ZM24.129 25.0781C24.0793 24.9053 24.0095 24.7526 23.9195 24.62C23.8296 24.4851 23.7195 24.3714 23.5893 24.2791C23.4614 24.1844 23.3147 24.1122 23.1489 24.0625C22.9856 24.0128 22.8045 23.9879 22.6056 23.9879C22.2339 23.9879 21.9072 24.0803 21.6255 24.2649C21.3461 24.4496 21.1283 24.7183 20.9721 25.071C20.8158 25.4214 20.7377 25.8499 20.7377 26.3565C20.7377 26.8632 20.8147 27.294 20.9685 27.6491C21.1224 28.0043 21.3402 28.2753 21.6219 28.4624C21.9037 28.647 22.2363 28.7393 22.6198 28.7393C22.9678 28.7393 23.2649 28.6778 23.5111 28.5547C23.7597 28.4292 23.9491 28.2528 24.0793 28.0256C24.2119 27.7983 24.2782 27.5296 24.2782 27.2195L24.5907 27.2656H22.7157V26.108H25.759V27.0241C25.759 27.6634 25.6241 28.2126 25.3542 28.6719C25.0843 29.1288 24.7126 29.4815 24.2391 29.7301C23.7656 29.9763 23.2235 30.0994 22.6127 30.0994C21.9309 30.0994 21.3319 29.9491 20.8158 29.6484C20.2997 29.3454 19.8973 28.9157 19.6084 28.3594C19.322 27.8007 19.1788 27.1378 19.1788 26.3707C19.1788 25.7812 19.264 25.2557 19.4344 24.794C19.6073 24.33 19.8487 23.937 20.1589 23.6151C20.469 23.2931 20.83 23.0481 21.242 22.88C21.6539 22.7119 22.1002 22.6278 22.5807 22.6278C22.9927 22.6278 23.3762 22.6882 23.7313 22.8089C24.0864 22.9273 24.4013 23.0954 24.6759 23.3132C24.9529 23.531 25.179 23.7902 25.3542 24.0909C25.5294 24.3892 25.6418 24.7183 25.6915 25.0781H24.129Z" fill="white"/>
</svg>
